<?xml version="1.0" standalone="no"?>
<!DOCTYPE svg PUBLIC "-//W3C//DTD SVG 20010904//EN"
 "http://www.w3.org/TR/2001/REC-SVG-20010904/DTD/svg10.dtd">
<svg version="1.0" xmlns="http://www.w3.org/2000/svg"
 width="200.000000pt" height="200.000000pt" viewBox="0 0 200.000000 200.000000"
 preserveAspectRatio="xMidYMid meet">

<g transform="translate(0.000000,200.000000) scale(0.100000,-0.100000)"
fill="#000000" stroke="none">
<path d="M880 1765 c-77 -18 -263 -88 -255 -97 3 -3 -10 -15 -29 -27 -41 -26
-142 -132 -186 -196 -27 -39 -110 -205 -110 -220 0 -3 4 -5 9 -5 5 0 17 21 25
48 9 26 30 67 46 92 16 25 30 50 30 56 0 24 96 136 153 179 136 101 263 144
449 152 126 6 226 -15 348 -72 41 -19 66 -28 55 -19 -34 26 -147 81 -204 98
-79 23 -251 29 -331 11z"/>
<path d="M895 1681 c-61 -10 -168 -40 -175 -50 -3 -4 -33 -24 -67 -45 -139
-83 -242 -210 -297 -365 -29 -80 -31 -95 -31 -224 0 -143 -9 -143 -24 2 l-8
76 -2 -85 c-2 -149 43 -271 155 -422 36 -48 98 -118 137 -155 l72 -66 -70 36
c-113 59 -221 160 -280 262 -29 49 -44 62 -21 18 32 -63 109 -155 170 -204 36
-29 63 -56 60 -60 -2 -4 1 -11 7 -15 8 -4 9 -3 5 4 -11 18 -1 15 57 -17 28
-16 63 -32 77 -36 14 -4 53 -20 88 -36 35 -16 75 -32 90 -36 l27 -7 -25 -8
c-20 -6 -19 -7 8 -3 20 3 31 1 27 -5 -11 -18 259 -17 342 1 47 10 156 49 151
54 -2 2 -34 -7 -73 -20 -38 -12 -90 -25 -115 -28 -42 -6 -41 -5 22 18 124 44
188 84 283 179 77 77 98 106 138 188 72 146 88 201 92 303 2 57 1 75 -3 50
l-8 -40 -8 60 c-13 99 -45 216 -81 290 -52 108 -200 281 -248 289 -7 1 -28 10
-46 20 -19 10 -58 27 -85 37 -28 9 -42 18 -31 18 11 0 38 -7 60 -15 22 -9 45
-16 52 -16 7 -1 10 -5 7 -10 -3 -4 2 -5 10 -2 8 3 32 -4 55 -16 23 -11 41 -18
41 -15 0 17 -182 86 -240 90 -119 10 -252 12 -295 6z m29 -193 c-5 -8 0 -9 17
-3 23 8 154 18 134 11 -5 -2 -50 -9 -100 -16 -49 -7 -100 -17 -112 -23 -13 -6
-25 -8 -28 -5 -3 3 9 11 27 17 18 7 40 17 48 21 21 12 22 12 14 -2z m222 -13
l29 -15 -33 0 c-23 0 -42 -9 -61 -27 -51 -51 -66 -58 -32 -16 18 22 43 44 54
48 22 6 22 6 2 15 -16 7 -16 9 -4 9 9 1 30 -6 45 -14z m-113 -12 c-7 -2 -13
-14 -14 -26 0 -15 -2 -17 -6 -7 -3 8 -11 18 -17 22 -15 10 -75 -1 -103 -18
-31 -20 -42 -17 -14 3 13 9 38 19 55 24 35 8 118 10 99 2z m-252 -53 c-25 -21
-48 -37 -52 -35 -3 3 -15 -5 -25 -16 -16 -18 -16 -19 -1 -13 9 3 17 11 17 17
0 6 3 7 7 4 3 -4 -4 -18 -17 -32 -13 -14 -20 -28 -17 -32 8 -7 47 31 47 45 0
5 10 17 23 28 22 19 22 19 5 -2 -23 -27 -23 -38 2 -31 11 3 20 1 20 -5 0 -5
15 -7 34 -4 28 5 35 2 39 -14 5 -18 3 -18 -15 -6 -30 21 -58 9 -58 -25 0 -21
5 -29 18 -30 11 0 12 -2 4 -6 -23 -9 -43 18 -37 49 6 23 3 28 -13 28 -28 0
-45 -25 -40 -59 2 -17 1 -28 -4 -25 -4 3 -8 14 -8 25 0 10 -5 19 -11 19 -8 0
-9 -11 -5 -32 4 -24 3 -29 -4 -18 -8 12 -10 11 -10 -6 0 -25 18 -35 52 -28 21
4 21 4 3 -5 -15 -8 -10 -9 23 -6 27 3 41 1 37 -5 -3 -6 4 -10 15 -10 14 0 20
-5 17 -12 -3 -7 -8 -20 -12 -29 -8 -22 46 -79 77 -79 12 1 52 7 88 15 36 8 74
14 85 14 28 -1 -134 -38 -168 -38 -19 -1 -41 12 -71 39 -25 23 -59 44 -82 49
-22 5 -30 9 -17 10 12 1 33 -3 47 -9 34 -13 33 -5 -1 15 -27 16 -20 15 22 -1
18 -7 18 -6 6 9 -14 18 -39 21 -90 11 -19 -4 -28 -11 -24 -18 3 -6 -3 -3 -13
7 -29 27 -24 131 9 183 27 44 43 59 90 84 52 28 55 22 8 -20z m444 30 c3 -6
-1 -7 -9 -4 -18 7 -21 14 -7 14 6 0 13 -4 16 -10z m8 -30 c12 0 16 4 11 13 -4
6 4 2 17 -10 12 -12 20 -26 16 -30 -4 -3 -13 -1 -19 5 -7 7 -15 12 -20 12 -4
0 4 -11 18 -25 29 -29 36 -31 28 -10 -4 8 -1 15 5 15 7 0 22 -23 35 -50 26
-55 25 -121 -1 -172 -35 -70 -36 -98 -3 -78 8 5 19 42 26 92 l12 83 0 -67 c-1
-88 -23 -128 -70 -127 -28 0 -30 2 -13 10 15 7 10 8 -20 4 -29 -3 -34 -2 -20
5 18 8 18 9 2 9 -10 1 -15 6 -11 12 4 8 9 8 17 0 16 -16 47 -14 47 3 0 21 -61
47 -78 34 -7 -6 -11 -17 -8 -24 3 -8 0 -11 -10 -7 -7 3 -14 0 -14 -6 0 -6 5
-11 12 -11 6 0 8 -3 5 -6 -4 -4 -13 -1 -22 6 -9 8 -28 10 -52 6 l-38 -6 30 13
c17 8 37 12 46 10 18 -5 69 50 69 73 0 10 -14 14 -47 15 l-48 2 55 6 c30 3 62
10 70 15 12 8 12 5 -1 -10 -32 -38 -32 -58 3 -73 28 -13 32 -12 45 5 9 12 12
35 9 64 -2 25 -5 51 -5 59 -1 11 -6 10 -26 -3 -22 -15 -24 -15 -18 0 3 9 0 20
-8 25 -9 6 -10 9 -2 9 6 0 15 -5 18 -10 8 -13 25 -3 25 13 0 7 -4 18 -9 26 -8
12 -12 12 -24 2 -13 -10 -15 -9 -10 9 5 20 -9 39 -30 40 -4 0 -16 -15 -27 -32
-24 -39 -27 -30 -4 14 13 25 14 32 2 39 -21 14 -64 10 -78 -6 -7 -8 -18 -15
-24 -14 -7 0 -6 2 2 6 6 2 12 10 12 17 0 7 16 13 37 14 21 2 39 5 42 8 3 2 9
0 15 -6 5 -5 18 -10 29 -10z m-272 -17 c-12 -20 -14 -14 -5 12 4 9 9 14 11 11
3 -2 0 -13 -6 -23z m-96 -12 c3 -5 19 -13 36 -16 26 -6 30 -11 25 -28 -15 -49
-18 -87 -8 -87 5 0 12 7 16 15 3 8 11 15 18 14 10 0 10 -2 1 -6 -7 -2 -13 -11
-13 -18 0 -8 -9 -17 -20 -20 -11 -4 -33 -18 -50 -31 -16 -14 -35 -22 -41 -18
-8 5 -7 9 2 15 10 6 7 10 -11 18 -14 5 -19 10 -12 10 7 1 22 -4 34 -10 28 -15
35 -3 12 22 l-19 22 27 -17 c31 -20 34 -17 43 50 6 51 6 52 -25 68 -18 8 -37
13 -43 9 -6 -3 -7 -1 -3 5 9 14 23 15 31 3z m207 -23 c-5 -7 -13 -28 -17 -47
-6 -29 -5 -33 9 -28 9 4 16 3 16 -2 0 -5 -19 -11 -43 -14 -24 -3 -52 -9 -62
-12 -19 -6 -19 -6 0 6 11 7 23 17 27 23 5 7 8 6 8 -3 0 -26 29 10 40 50 6 22
16 39 22 39 7 0 7 -4 0 -12z m67 -1 c-2 -1 -13 -9 -24 -17 -19 -14 -19 -14 -6
3 7 9 18 17 24 17 6 0 8 -1 6 -3z m-301 -82 c-3 -3 -9 2 -12 12 -6 14 -5 15 5
6 7 -7 10 -15 7 -18z m330 -1 c-9 -9 -22 -14 -30 -11 -8 3 -4 8 12 15 35 15
37 14 18 -4z m7 -24 c-3 -5 -23 -9 -43 -9 l-37 2 40 7 c22 4 41 8 43 9 2 0 0
-3 -3 -9z m68 3 c-7 -2 -19 -2 -25 0 -7 3 -2 5 12 5 14 0 19 -2 13 -5z m-479
-29 c5 -14 4 -15 -9 -4 -17 14 -19 20 -6 20 5 0 12 -7 15 -16z m341 -27 c27
-4 27 -5 -4 -3 -21 0 -36 7 -38 16 -3 10 -2 11 4 3 4 -6 22 -13 38 -16z m-102
-2 c49 4 48 4 -13 -9 -36 -8 -67 -12 -69 -10 -2 2 1 4 7 4 7 0 12 8 13 18 0
10 3 12 6 4 3 -9 20 -11 56 -7z m-115 -41 c-16 -8 -28 -19 -28 -25 0 -6 -5 -7
-11 -3 -11 7 37 44 56 44 6 -1 -2 -8 -17 -16z m293 3 c-6 -8 -35 -14 -73 -15
-35 0 -83 -3 -108 -5 -25 -2 -36 -2 -25 0 11 3 25 8 30 12 6 4 38 6 73 5 35
-2 73 1 85 6 30 12 31 12 18 -3z m-235 -46 c5 -5 18 -11 29 -14 16 -4 15 -5
-5 -6 -14 0 -32 3 -39 8 -9 6 -23 5 -35 -1 -19 -10 -20 -10 -7 5 15 19 42 22
57 8z m-446 -111 c6 -10 10 -44 10 -74 0 -43 -3 -56 -15 -56 -11 0 -15 13 -15
54 0 30 -4 58 -10 61 -6 4 -10 -17 -10 -54 0 -48 -3 -61 -15 -61 -11 0 -15 13
-15 54 0 30 -4 58 -10 61 -6 4 -10 -17 -10 -54 0 -48 -3 -61 -15 -61 -16 0
-19 19 -15 85 3 54 13 63 66 63 33 0 47 -4 54 -18z m110 6 c0 -8 -9 -18 -20
-21 -11 -3 -20 -10 -20 -15 0 -4 9 -10 20 -13 11 -3 20 -10 20 -16 0 -6 -9
-11 -20 -11 -11 0 -20 -4 -20 -10 0 -5 9 -14 20 -20 17 -9 29 -40 15 -40 -18
0 -55 26 -64 47 -17 37 -13 62 14 88 27 28 55 33 55 11z m78 2 c9 -9 12 -9 12
0 0 7 7 12 15 12 12 0 15 -16 15 -81 0 -60 -3 -80 -12 -77 -7 3 -15 24 -18 49
-9 75 -24 82 -30 15 -3 -35 -10 -61 -17 -64 -10 -3 -13 17 -13 77 0 71 2 81
18 81 10 0 23 -5 30 -12z m152 -3 c0 -8 -7 -15 -15 -15 -12 0 -15 -13 -15 -60
0 -47 -3 -60 -15 -60 -12 0 -15 13 -15 60 0 33 -4 60 -10 60 -5 0 -10 7 -10
15 0 11 11 15 40 15 29 0 40 -4 40 -15z m139 5 c31 -16 45 -64 29 -97 -38 -80
-148 -56 -148 33 0 56 67 92 119 64z m132 -7 c16 -18 21 -130 7 -139 -4 -3
-13 9 -19 26 -12 34 -32 35 -37 2 -2 -12 -10 -22 -18 -22 -11 0 -14 17 -14 75
l0 75 34 0 c19 0 39 -7 47 -17z m79 3 c0 -8 -4 -17 -9 -20 -5 -4 0 -24 12 -45
21 -39 21 -40 3 -60 -21 -23 -46 -28 -46 -10 0 7 7 17 16 23 14 11 14 16 -6
48 -17 30 -19 41 -10 57 12 24 40 28 40 7z m70 -22 c0 -24 4 -34 13 -31 6 2
12 18 11 35 0 20 5 32 13 32 14 0 14 -1 14 -65 0 -83 -1 -95 -11 -95 -5 0 -10
14 -10 30 0 20 -5 30 -15 30 -10 0 -15 -10 -15 -30 0 -20 -5 -30 -15 -30 -12
0 -15 16 -15 80 0 64 3 80 15 80 11 0 15 -11 15 -36z m160 29 c0 -4 -12 -17
-27 -30 -27 -22 -27 -22 -5 -23 13 0 22 -6 22 -15 0 -8 -9 -15 -20 -15 -25 0
-16 -27 11 -35 25 -8 19 -31 -7 -27 -51 8 -71 87 -32 129 20 21 58 32 58 16z
m90 -4 c0 -6 -10 -19 -22 -30 l-23 -18 23 -1 c13 0 22 -6 22 -15 0 -8 -9 -15
-20 -15 -26 0 -25 -14 1 -32 31 -20 22 -41 -11 -25 -52 26 -59 100 -13 135 21
15 43 16 43 1z m116 -14 c15 -23 15 -27 0 -50 -9 -14 -25 -25 -36 -25 -15 0
-20 -7 -20 -25 0 -16 -6 -25 -15 -25 -12 0 -15 15 -15 75 l0 75 35 0 c26 0 39
-6 51 -25z m61 -87 c-3 -8 -6 -5 -6 6 -1 11 2 17 5 13 3 -3 4 -12 1 -19z m-30
-138 c-37 -90 -85 -166 -146 -229 -36 -38 -41 -41 -13 -10 87 100 152 223 169
321 7 41 8 41 11 11 2 -18 -8 -59 -21 -93z m-1192 14 c-18 -19 -19 -31 -2 -37
7 -3 5 -6 -5 -6 -13 -1 -17 6 -16 27 2 28 16 44 30 36 5 -3 1 -12 -7 -20z
m431 14 c4 -6 3 -8 -3 -5 -6 4 -10 -4 -10 -20 0 -24 1 -25 12 -10 9 13 28 17
79 17 70 0 79 -8 52 -46 -14 -18 -15 -18 -21 9 -7 26 -8 26 -21 10 -8 -11 -13
-13 -14 -5 0 6 -5 12 -11 12 -5 0 -8 -4 -5 -8 6 -9 -80 -10 -89 -1 -6 7 11 59
19 59 3 0 8 -5 12 -12z m389 -36 c-7 -25 -8 -25 -15 -7 -7 17 -9 17 -9 3 -1
-25 -31 -23 -31 2 0 13 7 20 20 20 11 0 24 8 27 17 10 26 16 -3 8 -35z m55 30
c0 -15 6 -17 36 -14 24 3 39 0 45 -9 6 -10 9 -11 9 -1 0 7 13 12 30 12 23 0
30 -5 30 -19 0 -13 -6 -18 -17 -16 -10 1 -17 8 -15 14 3 15 -15 14 -20 -1 -7
-19 -49 -20 -64 -1 -13 17 -13 17 -14 -1 0 -15 -3 -16 -15 -6 -10 9 -15 9 -15
1 0 -6 -4 -11 -8 -11 -4 0 -6 16 -4 35 4 36 22 50 22 17z m-255 -22 c0 -13 -5
-25 -11 -27 -6 -2 -11 10 -11 27 0 17 5 29 11 27 6 -2 11 -14 11 -27z m-453
-4 c6 -8 8 -7 8 2 0 7 13 12 30 12 32 0 36 -6 20 -30 -8 -13 -11 -12 -24 5
-14 18 -15 18 -16 3 0 -19 -30 -26 -30 -7 0 5 -6 7 -12 3 -7 -5 -21 -9 -32
-10 -11 0 -22 -6 -24 -13 -2 -7 -11 -4 -23 10 -10 12 -19 18 -19 12 0 -5 -7
-10 -15 -10 -8 0 -15 9 -15 19 0 16 8 18 73 17 41 -1 75 -6 79 -13z m117 -8
c-1 -17 -2 -19 -6 -5 -2 9 -8 17 -13 17 -5 0 -11 -8 -13 -17 -4 -14 -5 -12 -6
5 -1 16 5 22 19 22 14 0 20 -6 19 -22z m91 8 c0 -7 -7 -21 -15 -32 -14 -18
-14 -18 -15 0 0 12 -5 16 -15 12 -8 -3 -15 0 -15 7 0 8 -4 6 -10 -3 -8 -12
-10 -11 -10 7 0 19 5 22 40 21 24 0 40 -5 40 -12z m379 -8 c-1 -17 -2 -19 -6
-5 -2 9 -9 17 -15 17 -5 0 -8 -7 -4 -15 6 -17 -9 -21 -19 -5 -3 6 -11 10 -16
10 -6 0 -8 -4 -4 -9 3 -6 -3 -9 -12 -9 -10 0 -27 -3 -37 -7 -16 -7 -18 -5 -13
9 4 10 7 21 7 26 0 4 27 8 60 9 56 1 60 0 59 -21z m346 0 c-11 -35 -22 -42
-30 -19 -3 12 -11 21 -16 21 -6 0 -7 -4 -4 -10 3 -5 1 -10 -4 -10 -6 0 -11 9
-11 20 0 16 7 20 36 20 32 0 35 -2 29 -22z m-465 -131 c0 -12 -5 -29 -10 -37
-6 -10 -7 -3 -3 24 5 31 3 37 -7 31 -9 -5 -11 -4 -6 4 11 17 26 4 26 -22z
m-40 0 c0 -2 -10 -12 -22 -23 l-23 -19 19 23 c18 21 26 27 26 19z m518 -59
c-35 -64 -154 -180 -233 -226 -89 -52 -211 -93 -296 -100 -62 -4 -220 25 -241
46 -4 4 38 6 94 4 113 -4 259 22 361 64 87 35 217 126 278 193 30 33 55 60 57
60 2 1 -7 -18 -20 -41z m-578 -36 c0 6 3 8 7 5 3 -4 12 1 19 11 10 13 10 7 -1
-20 -8 -21 -15 -48 -15 -62 0 -19 -4 -23 -20 -19 -11 3 -20 10 -20 15 0 6 8 7
18 4 14 -5 14 -4 -2 9 -18 13 -15 20 7 16 11 -2 -10 38 -37 69 -11 14 -6 11
12 -7 17 -18 32 -28 32 -21z m-83 26 c-3 -8 -6 -5 -6 6 -1 11 2 17 5 13 3 -3
4 -12 1 -19z m163 9 c0 -2 -10 -12 -22 -23 l-23 -19 19 23 c18 21 26 27 26 19z
m-20 -90 c0 -2 -10 -12 -22 -23 l-23 -19 19 23 c18 21 26 27 26 19z m-467 -41
c78 -60 213 -112 323 -126 65 -8 63 -9 -36 -6 -124 3 -169 19 -266 97 -35 28
-64 53 -64 55 0 9 13 3 43 -20z m488 6 c-5 -10 -18 -25 -27 -33 -11 -9 -9 -2
6 19 26 35 36 42 21 14z m-124 -7 c0 -8 -4 -12 -9 -9 -5 3 -6 10 -3 15 9 13
12 11 12 -6z m58 -14 c-3 -5 -1 -12 5 -16 12 -7 4 -25 -11 -25 -10 0 -12 33
-2 43 9 10 15 8 8 -2z m2 -103 c-3 -8 -6 -5 -6 6 -1 11 2 17 5 13 3 -3 4 -12
1 -19z"/>
<path d="M674 1315 c-3 -8 -4 -20 -2 -27 3 -7 7 -1 10 15 6 29 1 36 -8 12z"/>
<path d="M667 1263 c-4 -3 -7 -18 -6 -32 1 -26 1 -25 10 3 9 31 7 41 -4 29z"/>
<path d="M677 1186 c-4 -10 1 -12 14 -9 23 6 24 9 5 16 -8 3 -17 0 -19 -7z"/>
<path d="M1306 1320 c4 -19 11 -44 15 -55 6 -14 7 -9 3 15 -4 19 -11 44 -15
55 -6 14 -7 9 -3 -15z"/>
<path d="M902 978 c-27 -27 -3 -88 34 -88 15 0 54 35 54 48 0 4 -7 18 -16 30
-17 24 -53 29 -72 10z"/>
<path d="M1067 984 c-14 -14 -7 -35 11 -32 9 2 17 10 17 17 0 16 -18 25 -28
15z"/>
<path d="M1570 970 c0 -15 5 -20 18 -18 9 2 17 10 17 18 0 8 -8 16 -17 18 -13
2 -18 -3 -18 -18z"/>
<path d="M499 1603 c-13 -16 -12 -17 4 -4 9 7 17 15 17 17 0 8 -8 3 -21 -13z"/>
<path d="M444 1558 l-19 -23 23 19 c21 18 27 26 19 26 -2 0 -12 -10 -23 -22z"/>
<path d="M1568 1515 c41 -52 49 -65 106 -180 37 -73 66 -168 67 -220 0 -16 4
-39 9 -50 6 -13 8 10 7 67 -1 48 -6 84 -11 80 -5 -3 -6 0 -2 6 13 21 -103 228
-161 290 l-55 57 40 -50z"/>
<path d="M374 1488 l-19 -23 23 19 c21 18 27 26 19 26 -2 0 -12 -10 -23 -22z"/>
<path d="M286 1195 c-9 -26 -7 -32 5 -12 6 10 9 21 6 23 -2 3 -7 -2 -11 -11z"/>
<path d="M1787 1085 c3 -27 7 -52 9 -54 7 -8 2 54 -6 79 -6 17 -7 9 -3 -25z"/>
<path d="M252 1045 c0 -16 2 -22 5 -12 2 9 2 23 0 30 -3 6 -5 -1 -5 -18z"/>
<path d="M201 914 c0 -11 3 -14 6 -6 3 7 2 16 -1 19 -3 4 -6 -2 -5 -13z"/>
<path d="M1783 895 c0 -22 2 -30 4 -17 2 12 2 30 0 40 -3 9 -5 -1 -4 -23z"/>
<path d="M252 870 c0 -14 2 -19 5 -12 2 6 2 18 0 25 -3 6 -5 1 -5 -13z"/>
<path d="M1758 777 c-21 -86 -83 -215 -133 -277 -35 -43 -35 -43 9 4 25 28 61
82 80 120 36 72 70 185 64 211 -2 8 -11 -18 -20 -58z"/>
<path d="M1524 398 l-19 -23 23 19 c21 18 27 26 19 26 -2 0 -12 -10 -23 -22z"/>
</g>
</svg>
